<svg width="28" height="28" viewBox="0 0 28 28" fill="none" xmlns="http://www.w3.org/2000/svg">
<path fill-rule="evenodd" clip-rule="evenodd" d="M13.9997 2.33398C20.443 2.33398 25.6663 7.55733 25.6663 14.0007C25.6663 20.444 20.443 25.6673 13.9997 25.6673C7.55635 25.6673 2.33301 20.444 2.33301 14.0007C2.33301 7.55733 7.55635 2.33398 13.9997 2.33398ZM19.326 8.67432C18.9615 8.30983 18.3712 8.30983 18.0067 8.67432L13.9997 12.6813L9.99268 8.67432C9.62819 8.30983 9.03783 8.30983 8.67334 8.67432C8.30885 9.03881 8.30885 9.62916 8.67334 9.99365L12.6803 14.0007L8.67334 18.0077C8.30885 18.3721 8.30885 18.9625 8.67334 19.327C9.03784 19.6914 9.62821 19.6915 9.99268 19.327L13.9997 15.32L18.0067 19.327C18.3712 19.6914 18.9615 19.6915 19.326 19.327C19.6905 18.9625 19.6904 18.3721 19.326 18.0077L15.319 14.0007L19.326 9.99365C19.6905 9.62919 19.6904 9.03881 19.326 8.67432Z" fill="#D64C3F"/>
</svg>
