<svg width="80" height="17" viewBox="0 0 80 17" fill="none" xmlns="http://www.w3.org/2000/svg">
<g clip-path="url(#clip0_1136_30504)">
<path d="M0 8.89054V8.01936C0 2.68057 2.68801 0 8.07148 0C13.455 0 15.6441 2.44229 15.6888 6.78332V6.96203H10V6.58228C9.97766 5.10052 9.21817 4.31869 7.98957 4.31869C6.66418 4.31869 5.74832 5.23455 5.74832 7.34922V9.56813C5.74832 11.6754 6.67163 12.5987 7.98957 12.5987C9.23306 12.5987 10.0447 11.7945 10.0521 10.2457V9.76173H15.7632V9.94043C15.7409 14.4899 13.2986 16.9173 8.07148 16.9173C2.84438 16.9173 0 14.2293 0 8.89054Z" fill="#5A81FA"/>
<path d="M16.5303 10.9983V10.5069C16.5303 6.73918 18.6747 4.59473 23.2391 4.59473C27.8035 4.59473 29.9554 6.73918 29.9554 10.5069V10.9983C29.9554 14.766 27.7886 16.9104 23.2391 16.9104C18.6896 16.9104 16.5303 14.7585 16.5303 10.9983ZM24.8177 11.3036V10.2165C24.8177 8.79428 24.1773 8.15392 23.2466 8.15392C22.3158 8.15392 21.668 8.79428 21.668 10.2165V11.3036C21.668 12.7034 22.3084 13.3587 23.2466 13.3587C24.1848 13.3587 24.8177 12.7109 24.8177 11.3036Z" fill="#5A81FA"/>
<path d="M54.46 8.25032H52.3081V5.0113H55.0185C54.5494 4.86238 54.0952 4.3635 54.0952 3.20936V3.10512C54.0952 1.3553 55.2493 0.201172 59.3669 0.201172C60.6476 0.201172 61.6082 0.3352 61.9656 0.394768V3.64868C61.7422 3.62634 61.2359 3.56677 60.6328 3.56677C59.501 3.56677 59.1957 3.87206 59.1957 4.40817V4.47519C59.1957 4.84749 59.3446 4.98151 59.5307 5.0113H61.9656V8.25032H59.5084V16.4931H54.4526V8.25032H54.46Z" fill="#5A81FA"/>
<path d="M65.5322 0.416992H66.9022C67.8925 0.416992 68.6893 1.31796 68.6893 2.43486C68.6893 3.55176 67.8851 4.45273 66.9022 4.45273H65.5322C64.5418 4.45273 63.7451 3.55176 63.7451 2.43486C63.7451 1.31796 64.5493 0.416992 65.5322 0.416992Z" fill="#BDED78"/>
<path d="M66.016 5.1084H67.7882L68.9497 16.5753H66.1724H66.2617H63.4844L64.646 5.1084H66.4181" fill="#BDED78"/>
<path d="M70.3944 12.4048L71.9804 6.82033L70.1636 6.84267L70.6922 5.00351L72.5984 5.02584L73.4249 2.06233L78.4584 0.729492L77.2149 5.02584L79.9923 5.00351L79.4636 6.84267L76.7533 6.82033L75.0556 12.7474C74.7578 13.7824 75.1003 14.4004 75.9715 14.4004C76.4331 14.4004 76.865 14.2589 77.4607 13.9164L77.0735 15.3833C76.2246 16.2321 74.7503 16.8278 73.3951 16.8278C70.8933 16.8278 69.6498 14.9439 70.387 12.39L70.3944 12.4048Z" fill="#5A81FA"/>
<path d="M31.0427 10.983L31.2735 10.2459C31.8022 8.4514 32.033 7.53554 32.6957 5.01134H37.059C36.5304 6.59734 35.9124 8.18334 35.0412 10.5735H35.339C36.992 6.66436 39.062 4.64648 41.4299 4.64648C42.7627 4.64648 43.5222 5.30918 43.5222 6.48565C43.5222 7.14835 43.3137 7.79615 42.167 10.5735H42.4649C44.1402 6.64202 46.1655 4.64648 48.578 4.64648C50.2087 4.64648 51.1767 5.56234 51.1767 7.14835C51.1767 7.72169 51.0129 8.50352 50.715 9.41938L50.1194 11.3479C49.1514 14.3338 48.9727 15.0262 48.6302 16.4931H43.485C44.2445 14.3561 44.654 13.0009 45.138 11.6904L45.9198 9.57575C46.1283 8.98007 46.2176 8.60777 46.24 8.30992C46.2623 7.84827 46.0762 7.59511 45.7113 7.59511C44.8625 7.59511 43.6934 9.50129 42.6808 12.4201C42.3159 13.4328 41.8766 14.8773 41.4894 16.4857H36.3889C37.4016 13.5668 37.5579 12.9488 37.9972 11.7723L38.7791 9.59064C38.9876 9.0173 39.0769 8.65244 39.0993 8.30248C39.1216 7.81849 38.9354 7.58766 38.5929 7.58766C37.7441 7.58766 36.5676 9.4715 35.5401 12.435C35.2199 13.3956 34.7806 14.9145 34.3934 16.4782H29.3599C30.0747 14.2965 30.4172 13.1275 31.0576 10.9682L31.0427 10.983Z" fill="#5A81FA"/>
</g>
<defs>
<clipPath id="clip0_1136_30504">
<rect width="80" height="16.9099" fill="white"/>
</clipPath>
</defs>
</svg>
