<svg width="48" height="48" viewBox="0 0 48 48" fill="none" xmlns="http://www.w3.org/2000/svg">
<path d="M17 20.3984C17.8837 20.3984 18.5996 21.1144 18.5996 21.998V31.998C18.5996 32.8817 17.8837 33.5977 17 33.5977C16.1163 33.5977 15.4004 32.8817 15.4004 31.998V21.998C15.4004 21.1144 16.1163 20.3984 17 20.3984Z" fill="#7899FF"/>
<path d="M24 20.3984C24.8837 20.3984 25.5996 21.1144 25.5996 21.998V31.998C25.5996 32.8817 24.8837 33.5977 24 33.5977C23.1163 33.5977 22.4004 32.8817 22.4004 31.998V21.998C22.4004 21.1144 23.1163 20.3984 24 20.3984Z" fill="#7899FF"/>
<path d="M31 20.3984C31.8837 20.3984 32.5996 21.1144 32.5996 21.998V31.998C32.5996 32.8817 31.8837 33.5977 31 33.5977C30.1163 33.5977 29.4004 32.8817 29.4004 31.998V21.998C29.4004 21.1144 30.1163 20.3984 31 20.3984Z" fill="#7899FF"/>
<path fill-rule="evenodd" clip-rule="evenodd" d="M28.5586 4.39844C30.1081 4.39849 31.4846 5.38938 31.9746 6.85938L33.1523 10.3984H42C42.8837 10.3984 43.5996 11.1144 43.5996 11.998C43.5996 12.8817 42.8837 13.5977 42 13.5977H39.5996V38.7988C39.5992 41.4492 37.4511 43.5972 34.8008 43.5977H13.1992C10.5489 43.5972 8.40081 41.4492 8.40039 38.7988V13.5977H6C5.11634 13.5977 4.40039 12.8817 4.40039 11.998C4.40039 11.1144 5.11634 10.3984 6 10.3984H14.8477L16.0254 6.85938C16.5154 5.38938 17.8919 4.39849 19.4414 4.39844H28.5586ZM11.5996 38.7988C11.6 39.6819 12.3162 40.398 13.1992 40.3984H34.8008C35.6838 40.398 36.4 39.6819 36.4004 38.7988V13.5977H11.5996V38.7988ZM19.4414 7.59766C19.2695 7.5977 19.1171 7.7081 19.0625 7.87109L18.2188 10.3984H29.7812L28.9375 7.87109C28.8829 7.7081 28.7305 7.5977 28.5586 7.59766H19.4414Z" fill="#7899FF"/>
</svg>
