<svg width="24" height="24" viewBox="0 0 24 24" fill="none" xmlns="http://www.w3.org/2000/svg">
<path d="M19 2H5C4.44772 2 4 2.44772 4 3V22H20V3C20 2.44772 19.5523 2 19 2Z" fill="#A0B7FF"/>
<path d="M15.25 5H8.75C8.33579 5 8 5.33579 8 5.75C8 6.16421 8.33579 6.5 8.75 6.5H15.25C15.6642 6.5 16 6.16421 16 5.75C16 5.33579 15.6642 5 15.25 5Z" fill="white"/>
<path d="M15.25 9H8.75C8.33579 9 8 9.33579 8 9.75C8 10.1642 8.33579 10.5 8.75 10.5H15.25C15.6642 10.5 16 10.1642 16 9.75C16 9.33579 15.6642 9 15.25 9Z" fill="white"/>
<path d="M20.5 20H3.5C3.22386 20 3 20.2239 3 20.5V21.5C3 21.7761 3.22386 22 3.5 22H20.5C20.7761 22 21 21.7761 21 21.5V20.5C21 20.2239 20.7761 20 20.5 20Z" fill="#5A81FA"/>
<path d="M12.2703 13.4492C14.2003 13.4492 15.7603 15.0092 15.7603 16.9392V20.5292H8.78027V16.9392C8.78027 15.0092 10.3403 13.4492 12.2703 13.4492Z" fill="#5A81FA"/>
<path d="M22.0147 20.9502L16.7298 15.6654C16.426 15.3615 15.9334 15.3615 15.6296 15.6654C15.3257 15.9692 15.3257 16.4618 15.6296 16.7656L20.9144 22.0505C21.2183 22.3543 21.7109 22.3543 22.0147 22.0505C22.3185 21.7467 22.3185 21.2541 22.0147 20.9502Z" fill="#BDED78"/>
<path d="M16.8636 20.9459C19.0578 20.9459 20.8366 19.1672 20.8366 16.973C20.8366 14.7788 19.0578 13 16.8636 13C14.6694 13 12.8906 14.7788 12.8906 16.973C12.8906 19.1672 14.6694 20.9459 16.8636 20.9459Z" fill="#BDED78"/>
<path d="M16.8638 19.3486C18.1757 19.3486 19.2393 18.2851 19.2393 16.9731C19.2393 15.6612 18.1757 14.5977 16.8638 14.5977C15.5518 14.5977 14.4883 15.6612 14.4883 16.9731C14.4883 18.2851 15.5518 19.3486 16.8638 19.3486Z" fill="#A0B7FF"/>
</svg>
