<svg width="24" height="24" viewBox="0 0 24 24" fill="none" xmlns="http://www.w3.org/2000/svg">
<path d="M8.5 10.1992C8.94183 10.1992 9.2998 10.5572 9.2998 10.999V15.999C9.2998 16.4409 8.94183 16.7988 8.5 16.7988C8.05817 16.7988 7.7002 16.4409 7.7002 15.999V10.999C7.7002 10.5572 8.05817 10.1992 8.5 10.1992Z" fill="#5A5C63"/>
<path d="M12 10.1992C12.4418 10.1992 12.7998 10.5572 12.7998 10.999V15.999C12.7998 16.4409 12.4418 16.7988 12 16.7988C11.5582 16.7988 11.2002 16.4409 11.2002 15.999V10.999C11.2002 10.5572 11.5582 10.1992 12 10.1992Z" fill="#5A5C63"/>
<path d="M15.5 10.1992C15.9418 10.1992 16.2998 10.5572 16.2998 10.999V15.999C16.2998 16.4409 15.9418 16.7988 15.5 16.7988C15.0582 16.7988 14.7002 16.4409 14.7002 15.999V10.999C14.7002 10.5572 15.0582 10.1992 15.5 10.1992Z" fill="#5A5C63"/>
<path fill-rule="evenodd" clip-rule="evenodd" d="M14.2793 2.19922C15.054 2.19924 15.7423 2.69469 15.9873 3.42969L16.5762 5.19922H21C21.4418 5.19922 21.7998 5.5572 21.7998 5.99902C21.7998 6.44085 21.4418 6.79883 21 6.79883H19.7998V19.3994C19.7996 20.7246 18.7256 21.7986 17.4004 21.7988H6.59961C5.27444 21.7986 4.20041 20.7246 4.2002 19.3994V6.79883H3C2.55817 6.79883 2.2002 6.44085 2.2002 5.99902C2.2002 5.5572 2.55817 5.19922 3 5.19922H7.42383L8.0127 3.42969C8.25769 2.69469 8.94595 2.19924 9.7207 2.19922H14.2793ZM5.7998 19.3994C5.80002 19.8409 6.15809 20.199 6.59961 20.1992H17.4004C17.8419 20.199 18.2 19.8409 18.2002 19.3994V6.79883H5.7998V19.3994ZM9.7207 3.79883C9.63474 3.79885 9.55855 3.85405 9.53125 3.93555L9.10938 5.19922H14.8906L14.4688 3.93555C14.4415 3.85405 14.3653 3.79885 14.2793 3.79883H9.7207Z" fill="#5A5C63"/>
</svg>
