<svg width="48" height="48" viewBox="0 0 48 48" fill="none" xmlns="http://www.w3.org/2000/svg">
<path fill-rule="evenodd" clip-rule="evenodd" d="M22.4744 13.5C27.431 13.5 31.4498 17.518 31.45 22.4744L31.4375 22.937C31.3394 24.87 30.6288 26.641 29.4972 28.0617L34.2072 32.8377C34.569 33.2047 34.565 33.7951 34.1981 34.1571C33.8311 34.519 33.2407 34.5149 32.8787 34.148L28.1882 29.3924C26.6358 30.6762 24.6462 31.45 22.4744 31.45L22.013 31.4375C17.271 31.1971 13.5 27.2762 13.5 22.4744C13.5002 17.5181 17.5181 13.5002 22.4744 13.5ZM22.4744 15.3662C18.549 15.3664 15.3664 18.549 15.3662 22.4744C15.3662 26.4001 18.5489 29.5825 22.4744 29.5827C26.4002 29.5827 29.5827 26.4002 29.5827 22.4744C29.5825 18.5489 26.4001 15.3662 22.4744 15.3662Z" fill="currentColor"/>
</svg>
